<svg xmlns="http://www.w3.org/2000/svg" viewBox="0 0 512 512" role="img" aria-labelledby="title">
  <title id="title">Dojo favicon</title>
  <rect width="512" height="512" rx="64" fill="#000"/>
  <path fill="#fff" d="M341 112h50v247h-50v-35c-27 31-62 47-105 47-40 0-74-14-101-42-28-28-42-63-42-104s14-76 42-104c27-28 61-42 101-42 43 0 78 16 105 48V112Zm-95 210c27 0 50-9 68-27 18-19 27-42 27-70s-9-51-27-69c-18-19-41-28-68-28s-49 9-67 28c-18 18-27 41-27 69s9 51 27 70c18 18 40 27 67 27Z"/>
  <rect x="214" y="54" width="144" height="30" rx="15" fill="#fff"/>
</svg>
